<svg width="32" height="32" viewBox="0 0 32 32" fill="none" xmlns="http://www.w3.org/2000/svg">
<path d="M16 24C15.5582 24 15.2 23.6419 15.2 23.2V16.8H8.80004C8.35827 16.8 8 16.442 8 16C8 15.5582 8.35825 15.2 8.80004 15.2H15.2V8.80004C15.2 8.35827 15.5582 8 16 8C16.4418 8 16.8 8.35825 16.8 8.80004V15.2H23.2C23.6417 15.2 24 15.5582 24 16C24 16.4418 23.6417 16.8 23.2 16.8H16.8V23.2C16.8 23.6417 16.442 24 16 24V24Z" fill="#3F53BE"/>
<path d="M4 1H28V-1H4V1ZM31 4V28H33V4H31ZM28 31H4V33H28V31ZM1 28V4H-1V28H1ZM4 31C2.34315 31 1 29.6569 1 28H-1C-1 30.7614 1.23858 33 4 33V31ZM31 28C31 29.6569 29.6569 31 28 31V33C30.7614 33 33 30.7614 33 28H31ZM28 1C29.6569 1 31 2.34315 31 4H33C33 1.23858 30.7614 -1 28 -1V1ZM4 -1C1.23858 -1 -1 1.23858 -1 4H1C1 2.34315 2.34315 1 4 1V-1Z" fill="#3F53BE"/>
</svg>
