<svg width="12" height="13" viewBox="0 0 12 13" fill="none" xmlns="http://www.w3.org/2000/svg">
<path d="M1.8673 0.620585C2.02808 0.459805 2.28875 0.459805 2.44953 0.620585L3.03177 1.20282C3.19255 1.3636 3.19255 1.62428 3.03177 1.78506L1.28506 3.53177C1.12428 3.69255 0.863603 3.69255 0.702822 3.53177L0.120585 2.94953C-0.0401951 2.78875 -0.0401951 2.52808 0.120585 2.3673L1.8673 0.620585Z" fill="#3F53BE"/>
<path d="M3.61402 2.3673C3.7748 2.20652 4.03548 2.20652 4.19626 2.3673L10.6009 8.77191C10.7616 8.93269 10.7616 9.19336 10.6009 9.35414L8.85416 11.1009C8.69338 11.2616 8.4327 11.2616 8.27192 11.1009L1.86731 4.69625C1.70653 4.53547 1.70653 4.27479 1.86731 4.11401L3.61402 2.3673Z" fill="#3F53BE"/>
<path d="M11.7537 12.4959C11.8977 12.5247 12.0247 12.3977 11.9959 12.2537L11.5496 10.0224C11.5174 9.86121 11.3185 9.80098 11.2022 9.91724L9.41724 11.7022C9.30098 11.8185 9.36121 12.0174 9.52243 12.0496L11.7537 12.4959Z" fill="#3F53BE"/>
</svg>
