<svg width="10" height="11" viewBox="0 0 10 11" fill="none" xmlns="http://www.w3.org/2000/svg">
<path d="M9.81277 1.58936C10.062 1.34015 10.062 0.936111 9.81277 0.686905C9.56357 0.437699 9.15954 0.437698 8.91034 0.686904L4.99999 4.59738L1.08966 0.686916C0.840461 0.437711 0.436432 0.437711 0.187234 0.686916C-0.0619637 0.936122 -0.0619649 1.34016 0.187233 1.58937L4.09757 5.49983L0.186898 9.41063C-0.0622995 9.65984 -0.0622993 10.0639 0.186898 10.3131C0.436096 10.5623 0.840124 10.5623 1.08932 10.3131L4.99999 6.40229L8.91068 10.3131C9.15987 10.5623 9.5639 10.5623 9.8131 10.3131C10.0623 10.0639 10.0623 9.65985 9.8131 9.41064L5.90242 5.49983L9.81277 1.58936Z" fill="#EC4466"/>
</svg>
